# xmcd
#
# Track frame offsets:
#	183
#	13820
#	28138
#	42703
#	54478
#	71048
#	88613
#	100783
#	115798
#	127415
#
# Disc length: 1858 seconds
#
# Revision: 0
# Processed by: cddbd v1.5PL3 Copyright (c) Steve Scherf et al.
# Submitted via: dBpowerAMP V4.0
#
DISCID=9007400a
DTITLE=Hopeton Lewis - Grooving Out On Life
DYEAR=1900
DGENRE=Blues
TTITLE0=Grooving Out On Life
TTITLE1=Proud Mary
TTITLE2=Love Is A Beautiful Thing
TTITLE3=God Bless Whoever Sent You
TTITLE4=Funk Kingston
TTITLE5=Take It Easy
TTITLE6=Help Me Make It Through The Night 
TTITLE7=Going Back To My Home Town
TTITLE8=Express Yourself
TTITLE9=Joy To The World - Put Your Hand In The Hand
EXTD=
EXTT0=
EXTT1=
EXTT2=
EXTT3=
EXTT4=
EXTT5=
EXTT6=
EXTT7=
EXTT8=
EXTT9=
PLAYORDER=
